Coordinates
version=1
nRows=16
nColumns=40
inDegrees=yes

Units are S.I. units (second, meters, Newtons, ...)
If the header above contains a line with 'inDegrees', this indicates whether rotational values are in degrees (yes) or radians (no).

endheader
time	pelvis_tilt	pelvis_list	pelvis_rotation	pelvis_tx	pelvis_ty	pelvis_tz	hip_flexion_r	hip_adduction_r	hip_rotation_r	knee_angle_r	knee_angle_r_beta	ankle_angle_r	subtalar_angle_r	mtp_angle_r	hip_flexion_l	hip_adduction_l	hip_rotation_l	knee_angle_l	knee_angle_l_beta	ankle_angle_l	subtalar_angle_l	mtp_angle_l	lumbar_extension	lumbar_bending	lumbar_rotation	arm_flex_r	arm_add_r	arm_rot_r	elbow_flex_r	pro_sup_r	wrist_flex_r	wrist_dev_r	arm_flex_l	arm_add_l	arm_rot_l	elbow_flex_l	pro_sup_l	wrist_flex_l	wrist_dev_l
      1.08000000	     -4.10715732	    -10.28169698	     89.85259830	      0.18197330	      0.89007716	      0.95002789	     39.35107712	     -0.32478077	      0.98616286	      4.52817721	      0.07903160	      7.36698848	     -0.00000000	      0.00000000	    -10.66035447	      7.86003187	     13.05925456	     -2.36446074	     -0.04126762	      9.33252676	     -0.00000000	      0.00000000	      3.66460267	     -6.29051306	      1.77234534	      0.00000000	      0.00000000	     -0.00000000	      0.00000000	      0.00000000	      0.00000000	      0.00000000	     -0.00000000	      0.00000000	     -0.00000000	      0.00000000	      0.00000000	     -0.00000000	      0.00000000
      1.09000000	     -4.16974344	    -10.46046997	     89.85912332	      0.18260577	      0.88855339	      0.93982389	     39.31522020	     -0.27137169	      1.06400149	      4.72115573	      0.08239971	      7.24405386	      0.00000000	      0.00000000	    -10.98053527	      7.87297255	     12.91589622	     -2.03121889	     -0.03545146	      9.22442664	      0.00000000	      0.00000000	      4.00085192	     -6.35267587	      1.84150298	      0.00000000	      0.00000000	      0.00000000	      0.00000000	      0.00000000	      0.00000000	      0.00000000	      0.00000000	      0.00000000	      0.00000000	      0.00000000	      0.00000000	      0.00000000	      0.00000000
      1.10000000	     -4.08024816	    -10.52490049	     89.86585055	      0.18342948	      0.88734014	      0.92924101	     38.90452365	     -0.03831295	      1.65276843	      4.60832904	      0.08043051	      6.61769176	      0.00000000	      0.00000000	    -11.43688071	      7.71128243	     12.83947348	     -1.69718879	     -0.02962153	      9.06189997	      0.00000000	      0.00000000	      4.24092849	     -6.25846932	      1.90623371	      0.00000000	      0.00000000	      0.00000000	      0.00000000	      0.00000000	      0.00000000	      0.00000000	      0.00000000	      0.00000000	      0.00000000	      0.00000000	      0.00000000	      0.00000000	      0.00000000
      1.11000000	     -4.00702107	    -10.69039510	     89.87078693	      0.18427992	      0.88604203	      0.91856043	     38.79154092	      0.16436402	      1.92021498	      4.97721620	      0.08686881	      6.21195781	     -0.00000000	      0.00000000	    -11.70000916	      7.57122939	     12.69009126	     -1.20301583	     -0.02099659	      8.83752834	     -0.00000000	      0.00000000	      4.60889380	     -6.18088984	      2.01773360	     -0.00000000	     -0.00000000	      0.00000000	      0.00000000	      0.00000000	      0.00000000	     -0.00000000	     -0.00000000	     -0.00000000	     -0.00000000	      0.00000000	      0.00000000	      0.00000000	      0.00000000
      1.12000000	     -3.79386748	    -10.78605842	     89.87468495	      0.18524979	      0.88504684	      0.90754315	     38.34336928	      0.52337629	      2.47554597	      4.93270621	      0.08609196	      4.77024657	      0.00000000	      0.00000000	    -12.00722734	      7.28004542	     12.24834994	     -0.65741518	     -0.01147406	      8.36621416	      0.00000000	      0.00000000	      4.91994680	     -5.94137992	      2.11826471	      0.00000000	      0.00000000	      0.00000000	      0.00000000	      0.00000000	      0.00000000	      0.00000000	      0.00000000	      0.00000000	      0.00000000	      0.00000000	      0.00000000	      0.00000000	      0.00000000
      1.13000000	     -3.63235532	    -10.93540911	     89.87833432	      0.18617912	      0.88411051	      0.89651568	     38.18232357	      0.81739266	      2.79424286	      5.41110398	      0.09444158	      4.08300592	      0.00000000	      0.00000000	    -12.18948515	      7.04385739	     12.10359976	      0.00523890	      0.00009144	      8.01000686	      0.00000000	      0.00000000	      5.29273375	     -5.76152490	      2.21027341	      0.00000000	      0.00000000	      0.00000000	      0.00000000	      0.00000000	      0.00000000	      0.00000000	      0.00000000	      0.00000000	      0.00000000	      0.00000000	      0.00000000	      0.00000000	      0.00000000
      1.14000000	     -3.33520990	    -11.04069546	     89.87990820	      0.18730158	      0.88348899	      0.88513843	     37.70821016	      1.25708311	      3.17191732	      5.40504275	      0.09433579	      1.97040973	      0.00000000	     -0.00000000	    -12.33675879	      6.65213734	     11.38432916	      0.78633112	      0.01372407	      7.23336222	      0.00000000	      0.00000000	      5.65430470	     -5.44848001	      2.30278028	     -0.00000000	      0.00000000	      0.00000000	      0.00000000	      0.00000000	      0.00000000	      0.00000000	      0.00000000	      0.00000000	      0.00000000	      0.00000000	      0.00000000	     -0.00000000	     -0.00000000
      1.15000000	     -3.03375510	    -11.15178994	     89.88163295	      0.18841476	      0.88304904	      0.87370619	     37.37960306	      1.68725256	      3.36222487	      5.70988618	      0.09965631	      0.35098615	      0.00000000	      0.00000000	    -12.40115351	      6.25673455	     10.86399056	      1.69024494	      0.02950034	      6.46848095	      0.00000000	      0.00000000	      6.01166486	     -5.12108249	      2.35841155	      0.00000000	      0.00000000	      0.00000000	      0.00000000	      0.00000000	      0.00000000	      0.00000000	      0.00000000	      0.00000000	      0.00000000	      0.00000000	      0.00000000	      0.00000000	      0.00000000
      1.16000000	     -2.70966857	    -11.22618093	     89.88225473	      0.18956248	      0.88291399	      0.86215203	     37.00840047	      2.13854054	      3.48030074	      6.03600301	      0.10534813	     -1.36253252	      0.00000000	      0.00000000	    -12.39739799	      5.83054651	     10.23740714	      2.75514590	      0.04808637	      5.55674264	      0.00000000	      0.00000000	      6.33921120	     -4.76891284	      2.43540558	      0.00000000	      0.00000000	      0.00000000	      0.00000000	      0.00000000	      0.00000000	      0.00000000	      0.00000000	      0.00000000	      0.00000000	      0.00000000	      0.00000000	      0.00000000	      0.00000000
      1.17000000	     -2.35137610	    -11.30691728	     89.88208729	      0.19076980	      0.88301302	      0.85049747	     36.67113696	      2.61358936	      3.42898016	      6.43593822	      0.11232831	     -3.05713778	      0.00000000	      0.00000000	    -12.27516446	      5.35658726	      9.54997245	      3.97952076	      0.06945574	      4.45211466	      0.00000000	      0.00000000	      6.68209279	     -4.39182322	      2.47091236	      0.00000000	      0.00000000	      0.00000000	      0.00000000	      0.00000000	      0.00000000	      0.00000000	      0.00000000	      0.00000000	      0.00000000	      0.00000000	      0.00000000	      0.00000000	      0.00000000
      1.18000000	     -1.97570224	    -11.36471131	     89.88202421	      0.19199552	      0.88340297	      0.83880535	     36.32816056	      3.09471012	      3.29231558	      6.89456493	      0.12033286	     -4.60279566	      0.00000000	      0.00000000	    -12.05037155	      4.85083318	      8.80490763	      5.38473643	      0.09398138	      3.19357909	      0.00000000	      0.00000000	      6.99229647	     -3.98783054	      2.49754671	      0.00000000	      0.00000000	      0.00000000	      0.00000000	      0.00000000	      0.00000000	      0.00000000	      0.00000000	      0.00000000	      0.00000000	      0.00000000	      0.00000000	      0.00000000	      0.00000000
      1.19000000	     -1.58949533	    -11.40585751	     89.88023940	      0.19327549	      0.88406349	      0.82706344	     35.97894976	      3.57714360	      3.04040197	      7.39983998	      0.12915157	     -5.97040642	      0.00000000	      0.00000000	    -11.70988852	      4.31064287	      7.98004640	      6.97741815	      0.12177892	      1.73915614	      0.00000000	      0.00000000	      7.28833489	     -3.58425957	      2.50443410	      0.00000000	      0.00000000	      0.00000000	      0.00000000	      0.00000000	      0.00000000	      0.00000000	      0.00000000	      0.00000000	      0.00000000	      0.00000000	      0.00000000	      0.00000000	      0.00000000
      1.20000000	     -1.20241267	    -11.41450378	     89.87834681	      0.19456642	      0.88501510	      0.81531782	     35.60087968	      4.04416672	      2.69048997	      7.94739751	      0.13870825	     -7.07373266	      0.00000000	      0.00000000	    -11.26617024	      3.74455985	      7.12063771	      8.75763499	      0.15284957	      0.08842573	      0.00000000	      0.00000000	      7.54353530	     -3.18260067	      2.48729461	      0.00000000	      0.00000000	      0.00000000	      0.00000000	      0.00000000	      0.00000000	      0.00000000	      0.00000000	      0.00000000	      0.00000000	      0.00000000	      0.00000000	      0.00000000	      0.00000000
      1.21000000	     -0.83073841	    -11.40461679	     89.87668768	      0.19585594	      0.88622442	      0.80361022	     35.18842669	      4.48526402	      2.30405861	      8.49706333	      0.14830173	     -7.87153325	     -0.00000000	      0.00000000	    -10.69610425	      3.16432239	      6.23980908	     10.73547277	      0.18736935	     -1.71883383	      0.00000000	     -0.00000000	      7.76491995	     -2.79754030	      2.44435567	     -0.00000000	      0.00000000	      0.00000000	      0.00000000	      0.00000000	      0.00000000	      0.00000000	      0.00000000	      0.00000000	     -0.00000000	      0.00000000	      0.00000000	      0.00000000	     -0.00000000
      1.22000000	     -0.44142454	    -11.40211774	     89.87210221	      0.19720541	      0.88761378	      0.79195898	     34.77390285	      4.95115677	      1.97373274	      9.06776101	      0.15826229	     -8.41823641	      0.00000000	      0.00000000	     -9.96222131	      2.52384630	      5.27987547	     12.92846134	      0.22564422	     -3.69869533	      0.00000000	      0.00000000	      8.00069653	     -2.39179225	      2.45550713	      0.00000000	      0.00000000	      0.00000000	      0.00000000	      0.00000000	      0.00000000	      0.00000000	      0.00000000	      0.00000000	      0.00000000	      0.00000000	      0.00000000	      0.00000000	      0.00000000
      1.23000000	     -0.10513340	    -11.36597561	     89.87060191	      0.19850095	      0.88925314	      0.78041720	     34.27524821	      5.34344994	      1.59389422	      9.56976975	      0.16702399	     -8.64300251	      0.00000000	      0.00000000	     -9.12650205	      1.89544654	      4.35142772	     15.28687522	      0.26680630	     -5.81509823	      0.00000000	      0.00000000	      8.17166277	     -2.04704630	      2.39188564	      0.00000000	      0.00000000	      0.00000000	      0.00000000	      0.00000000	      0.00000000	      0.00000000	      0.00000000	      0.00000000	      0.00000000	      0.00000000	      0.00000000	      0.00000000	      0.00000000
